<svg width="550" height="550" viewBox="0 0 550 550" fill="none" xmlns="http://www.w3.org/2000/svg">
<rect width="550" height="550" fill="#0E0C0B"/>
<rect x="50" y="50" width="450" height="450" stroke="#FEFFFA" stroke-width="12"/>
<g fill="none" stroke="#FEFFFA" stroke-linecap="butt" stroke-linejoin="miter">
<path d="M265 161V72H72V265H161" stroke-width="8"/>
<path d="M161 285H72V478H265V389" stroke-width="8"/>
<path d="M389 285H478V478H285V389" stroke-width="8"/>
<path d="M285 161V72H478V265H389" stroke-width="8"/>
<path d="M161 304H91V459H246V389" stroke-width="6"/>
<path d="M246 161V91H91V246H161" stroke-width="6"/>
<path d="M389 304H459V459H304V389" stroke-width="6"/>
<path d="M304 161V91H459V246H389" stroke-width="6"/>
</g>
<rect x="210" y="210" width="130" height="130" stroke="#FEFFFA" stroke-width="10"/>
<rect x="242" y="178" width="66" height="32" stroke="#FEFFFA" stroke-width="10"/>
<rect x="242" y="340" width="66" height="32" stroke="#FEFFFA" stroke-width="10"/>
<rect x="340" y="242" width="32" height="66" stroke="#FEFFFA" stroke-width="10"/>
<rect x="178" y="242" width="32" height="66" stroke="#FEFFFA" stroke-width="10"/>
</svg>
